<svg xmlns="http://www.w3.org/2000/svg" id="Vrstva_2" data-name="Vrstva 2" viewBox="0 0 1297.59 155.18"><defs><style> .cls-1 { fill: #ed6b06; } </style></defs><g id="Layer_3" data-name="Layer 3"><g><path class="cls-1" d="M1102.73,26.64c-3.13-2.94-4.69-4.69-4.69-5.24,0-.92.83-1.38,2.47-1.38h67.86c2.94,0,4.87,1.01,5.79,3.04l34.76,86.05c.18.55.54,1.01,1.1,1.38.55,0,.91-.55,1.1-1.65l22.07-85.23c.55-2.39,2.3-3.59,5.24-3.59h22.06c2.39,0,3.59.92,3.59,2.76,0,.19-.09.46-.28.83l-33.92,127.98c-.55,2.21-2.3,3.31-5.25,3.31h-52.68c-2.95,0-4.78-1-5.51-3.03l-35.03-86.05c-.19-.55-.56-.92-1.11-1.11-.37,0-.73.55-1.1,1.66l-21.79,85.23c-.74,2.21-2.49,3.31-5.25,3.31h-22.06c-2.4,0-3.58-.82-3.58-2.48v-.83l30.89-115.85v-1.37c0-2.21-1.56-4.78-4.69-7.73M989.92,154.9c-2.4,0-3.59-.82-3.59-2.48v-.83l30.89-115.85v-1.37c0-2.21-1.56-4.78-4.69-7.73-3.13-2.94-4.69-4.69-4.69-5.24,0-.92.83-1.38,2.48-1.38h68.13c2.21,0,3.31.92,3.31,2.76v.83l-33.92,127.98c-.73,2.21-2.48,3.31-5.24,3.31h-52.68ZM849.25,154.9c-2.39,0-3.58-.82-3.58-2.48v-.83l30.89-115.85c.18-.37.27-.83.27-1.37,0-2.21-1.61-4.78-4.83-7.73-3.22-2.94-4.83-4.69-4.83-5.24,0-.92.83-1.38,2.47-1.38h68.14c2.2,0,3.31.92,3.31,2.76v.83l-30.9,115.57v.83c0,1.84,1.2,2.76,3.59,2.76h67.85c1.47,0,2.21.28,2.21.83,0,.37-.56.92-1.66,1.66l-11.03,7.17c-2.39,1.65-4.97,2.48-7.72,2.48h-114.2ZM853.39,20.03c2.39,0,3.59.92,3.59,2.76,0,6.44-2.3,9.65-6.89,9.65h-67.86c-2.94,0-4.69,1.11-5.24,3.31-7.54,28.32-11.3,42.66-11.3,43.03,0,1.85,1.19,2.76,3.59,2.76h67.85c1.47,0,2.2.27,2.2.83,0,.37-.55.82-1.65,1.38l-11.04,7.45c-2.39,1.66-5.06,2.48-7.99,2.48h-52.69c-2.94,0-4.69,1.2-5.24,3.59-7.54,28.31-11.31,42.57-11.31,42.75,0,1.84,1.19,2.76,3.58,2.76h67.85c1.47,0,2.21.28,2.21.83,0,.37-.55.92-1.65,1.66l-11.04,7.17c-2.39,1.65-4.96,2.48-7.72,2.48h-114.19c-2.39,0-3.59-.82-3.59-2.48v-.83l30.89-115.85v-1.37c0-2.21-1.56-4.78-4.69-7.73-3.12-2.94-4.69-4.69-4.69-5.24,0-.92.83-1.38,2.49-1.38h144.53ZM614.25,102.49l17.65-66.75c.18-.18.28-.46.28-.83,0-1.66-1.2-2.49-3.58-2.49h-22.01c-2.94,0-4.68,1.12-5.22,3.33l-17.66,66.75c0,.19-.07.47-.22.84,0,1.63,1.19,2.45,3.57,2.45h21.97c2.93,0,4.67-1.1,5.22-3.31M684.45,25.54c4.69,3.68,7.03,8.37,7.03,14.06,0,1.66-.18,3.31-.55,4.97l-12.96,49.1c-1.83,6.8-6.39,12.6-13.65,17.37-7.25,4.79-15.11,7.18-23.57,7.18h-57.06c-2.76,0-4.5,1.1-5.24,3.3l-7.72,30.09c-.74,2.2-2.48,3.29-5.24,3.29h-52.74c-2.4,0-3.59-.82-3.59-2.48v-.83l30.89-115.85c.18-.37.28-.83.28-1.37,0-2.21-1.61-4.78-4.83-7.73-3.22-2.94-4.83-4.69-4.83-5.24,0-.92.83-1.38,2.48-1.38h133.5c7.17,0,13.1,1.84,17.79,5.52M438.56,102.49l17.66-66.75c.18-.18.27-.46.27-.83,0-1.66-1.19-2.49-3.58-2.49h-22c-2.94,0-4.68,1.12-5.23,3.33l-17.66,66.75c0,.19-.07.47-.22.84,0,1.63,1.19,2.45,3.57,2.45h21.97c2.93,0,4.67-1.1,5.22-3.31M508.75,25.54c4.69,3.68,7.04,8.37,7.04,14.06,0,1.66-.19,3.31-.55,4.97l-12.96,49.1c-1.84,6.8-6.39,12.6-13.65,17.37-7.26,4.79-15.12,7.18-23.57,7.18h-57.07c-2.76,0-4.5,1.1-5.23,3.3l-7.72,30.09c-.74,2.2-2.49,3.29-5.25,3.29h-52.74c-2.39,0-3.58-.82-3.58-2.48v-.83l30.89-115.85c.18-.37.28-.83.28-1.37,0-2.21-1.61-4.78-4.83-7.73-3.21-2.94-4.83-4.69-4.83-5.24,0-.92.83-1.38,2.48-1.38h133.5c7.17,0,13.1,1.84,17.79,5.52M341.47,20.03c2.39,0,3.59.92,3.59,2.76,0,6.44-2.3,9.65-6.9,9.65h-67.85c-2.94,0-4.69,1.11-5.24,3.31-7.54,28.32-11.31,42.66-11.31,43.03,0,1.85,1.19,2.76,3.58,2.76h67.85c1.47,0,2.21.27,2.21.83,0,.37-.55.82-1.66,1.38l-11.03,7.45c-2.39,1.66-5.06,2.48-8,2.48h-52.68c-2.95,0-4.69,1.2-5.24,3.59-7.54,28.31-11.31,42.57-11.31,42.75,0,1.84,1.19,2.76,3.59,2.76h67.86c1.47,0,2.2.28,2.2.83,0,.37-.55.92-1.66,1.66l-11.03,7.17c-2.39,1.65-4.97,2.48-7.73,2.48h-114.19c-2.39,0-3.59-.82-3.59-2.48v-.83l30.9-115.85v-1.37c0-2.21-1.57-4.78-4.69-7.73-3.13-2.94-4.69-4.69-4.69-5.24,0-.92.83-1.38,2.48-1.38h144.53ZM182.87,20.58c1.65,0,2.48.46,2.48,1.38,0,.55-.28,1.11-.83,1.66l-99.57,116.4c-.55.55-.83,1.11-.83,1.66,0,.92.83,1.38,2.48,1.38h48.26c2.94,0,5.24.82,6.9,2.48l7.17,7.44c.56.37.83.74.83,1.11,0,.74-.92,1.11-2.76,1.11H2.48c-1.65,0-2.48-.46-2.48-1.38,0-.55.28-1.11.83-1.65L100.4,35.75c.55-.55.83-1.1.83-1.65,0-.92-.83-1.38-2.48-1.38h-48.26c-2.95,0-5.24-.83-6.9-2.48l-7.17-7.45c-.55-.37-.83-.73-.83-1.11,0-.73.92-1.1,2.76-1.1h144.53Z"></path><path class="cls-1" d="M1297.59,11.81c0,6.62-5.33,11.88-12.1,11.88s-12.17-5.26-12.17-11.88,5.4-11.81,12.24-11.81,12.03,5.18,12.03,11.81ZM1276.35,11.81c0,5.26,3.96,9.43,9.22,9.43,5.11.07,9-4.18,9-9.36s-3.89-9.5-9.15-9.5-9.07,4.25-9.07,9.43ZM1283.62,17.93h-2.74V6.12c1.08-.14,2.59-.36,4.54-.36,2.23,0,3.24.36,4.03.94.72.5,1.22,1.37,1.22,2.52,0,1.44-1.08,2.38-2.45,2.81v.14c1.15.36,1.73,1.3,2.09,2.88.36,1.8.65,2.45.86,2.88h-2.88c-.36-.43-.58-1.44-.94-2.88-.22-1.22-.94-1.8-2.45-1.8h-1.3v4.68ZM1283.69,11.3h1.3c1.51,0,2.74-.5,2.74-1.73,0-1.08-.79-1.8-2.52-1.8-.72,0-1.22.07-1.51.14v3.38Z"></path></g></g></svg>